<?xml version="1.0" standalone="no"?>
<!DOCTYPE svg PUBLIC "-//W3C//DTD SVG 20010904//EN"
 "http://www.w3.org/TR/2001/REC-SVG-20010904/DTD/svg10.dtd">
<svg version="1.0" xmlns="http://www.w3.org/2000/svg"
 width="16.000000pt" height="16.000000pt" viewBox="0 0 16.000000 16.000000"
 preserveAspectRatio="xMidYMid meet">
<metadata>
Created by potrace 1.11, written by Peter Selinger 2001-2013
</metadata>
<g transform="translate(0.000000,16.000000) scale(0.002286,-0.002286)"
fill="#000000" stroke="none">
<path d="M3285 6994 c-203 -20 -276 -28 -375 -45 -610 -105 -1195 -376 -1665
-772 -95 -81 -310 -294 -394 -392 -468 -542 -742 -1176 -833 -1925 -17 -137
-17 -583 0 -720 69 -569 227 -1028 514 -1491 145 -236 311 -440 525 -649 204
-200 371 -332 592 -468 463 -287 922 -445 1491 -514 137 -17 583 -17 720 0
569 69 1028 227 1491 514 360 222 692 528 958 882 323 430 549 960 640 1501
38 223 46 327 46 585 0 258 -8 362 -46 585 -105 627 -382 1216 -800 1700 -84
98 -299 311 -394 392 -518 437 -1148 710 -1845 798 -117 15 -536 28 -625 19z
m-1665 -2969 l0 -405 355 0 355 0 0 405 0 405 225 0 225 0 0 -965 0 -965 -225
0 -225 0 0 390 0 390 -355 0 -355 0 0 -390 0 -390 -225 0 -225 0 0 965 0 965
225 0 225 0 0 -405z m1802 -387 l3 -793 418 -3 417 -2 0 -170 0 -170 -645 0
-645 0 0 965 0 965 225 0 225 0 2 -792z m1886 777 c214 -35 368 -115 448 -233
52 -76 74 -141 81 -247 12 -176 -63 -328 -201 -409 -58 -35 -58 -35 -30 -42
56 -13 143 -64 184 -106 137 -142 153 -428 35 -613 -66 -105 -197 -193 -339
-230 -115 -29 -224 -35 -648 -35 l-428 0 0 965 0 965 403 0 c311 0 423 -4 495
-15z"/>
<path d="M4860 3860 l0 -232 178 4 c195 5 239 16 294 74 73 78 77 213 7 297
-50 61 -115 78 -311 85 l-168 5 0 -233z"/>
<path d="M4860 3085 l0 -245 158 0 c309 1 400 36 432 170 23 95 -2 200 -60
257 -52 51 -117 63 -338 63 l-192 0 0 -245z"/>
</g>
</svg>
