<svg width="86" height="86" viewBox="0 0 86 86" fill="none" xmlns="http://www.w3.org/2000/svg">
<circle cx="43" cy="43" r="43" fill="#D76C64"/>
<path d="M18 57.502V24H26.9129V38.1704L24.9773 38.7137C25.3074 37.5668 25.8926 36.5557 26.7328 35.6804C27.6031 34.775 28.6385 34.0657 29.8389 33.5526C31.0392 33.0395 32.3147 32.783 33.6651 32.783C35.4657 32.783 36.9962 33.1602 38.2566 33.9148C39.517 34.6693 40.4623 35.7861 41.0925 37.265C41.7527 38.7137 42.0828 40.4794 42.0828 42.5619V57.502H32.9449V43.3316C32.9449 42.6676 32.8398 42.1092 32.6298 41.6565C32.4197 41.2037 32.1046 40.8566 31.6845 40.6152C31.2643 40.3737 30.7692 40.253 30.199 40.253C29.7488 40.253 29.3287 40.3285 28.9386 40.4794C28.5784 40.6001 28.2633 40.7963 27.9933 41.0679C27.7232 41.3395 27.5131 41.6414 27.3631 41.9734C27.213 42.3054 27.138 42.6826 27.138 43.1052V57.502H22.5915C21.4511 57.502 20.4908 57.502 19.7106 57.502C18.9603 57.502 18.3901 57.502 18 57.502Z" fill="white"/>
<path d="M63.7367 58C62.6263 58 61.5759 57.8642 60.5856 57.5925C59.5953 57.3209 58.71 56.9436 57.9298 56.4607C57.1795 55.9778 56.5493 55.4043 56.0391 54.7403C55.529 54.0763 55.1989 53.352 55.0488 52.5672L56.8944 52.1598L56.1742 57.502H47.9365V24H57.1195V39.2117L55.0938 38.5779C55.2739 37.763 55.619 37.0084 56.1292 36.3142C56.6694 35.5899 57.3146 34.9711 58.0648 34.4581C58.815 33.9148 59.6553 33.5073 60.5856 33.2357C61.5159 32.9339 62.4912 32.783 63.5116 32.783C65.5522 32.783 67.3528 33.3262 68.9133 34.4128C70.5039 35.4993 71.7493 36.9933 72.6496 38.8948C73.5499 40.7963 74 42.9694 74 45.4141C74 47.889 73.5499 50.0772 72.6496 51.9787C71.7793 53.85 70.5639 55.3289 69.0034 56.4154C67.4729 57.4718 65.7173 58 63.7367 58ZM60.9908 50.53C61.861 50.53 62.5963 50.3338 63.1965 49.9414C63.7967 49.5189 64.2468 48.9303 64.5469 48.1758C64.877 47.4212 65.0421 46.5007 65.0421 45.4141C65.0421 44.3276 64.877 43.407 64.5469 42.6525C64.2468 41.8677 63.7967 41.2792 63.1965 40.8868C62.5963 40.4945 61.861 40.2983 60.9908 40.2983C60.1205 40.2983 59.3702 40.4945 58.74 40.8868C58.1398 41.2792 57.6747 41.8677 57.3446 42.6525C57.0445 43.407 56.8944 44.3276 56.8944 45.4141C56.8944 46.5007 57.0445 47.4212 57.3446 48.1758C57.6747 48.9303 58.1398 49.5189 58.74 49.9414C59.3702 50.3338 60.1205 50.53 60.9908 50.53Z" fill="white"/>
</svg>
